<mxfile>
    <diagram id="3YcLcnav1BOcSG4xQ_2O" name="Page-1">
        <mxGraphModel dx="770" dy="262" grid="1" gridSize="10" guides="1" tooltips="1" connect="1" arrows="1" fold="1" page="1" pageScale="1" pageWidth="827" pageHeight="1169" math="0" shadow="0">
            <root>
                <mxCell id="0"/>
                <mxCell id="1" parent="0"/>
                <mxCell id="2" value="" style="whiteSpace=wrap;html=1;aspect=fixed;strokeColor=#999999;fillColor=#CCCCCC;" vertex="1" parent="1">
                    <mxGeometry x="50" y="170" width="320" height="320" as="geometry"/>
                </mxCell>
                <mxCell id="ibESbj7DcfNNEL0wnVqV-1" value="Sure Petcare" style="ellipse;shape=cloud;whiteSpace=wrap;html=1;strokeColor=#666666;fontColor=#333333;shadow=0;sketch=1;fillColor=#9999FF;" parent="1" vertex="1">
                    <mxGeometry x="60" y="230" width="120" height="80" as="geometry"/>
                </mxCell>
                <mxCell id="ibESbj7DcfNNEL0wnVqV-2" value="" style="endArrow=classic;html=1;entryX=0.65;entryY=0.949;entryDx=0;entryDy=0;entryPerimeter=0;sketch=1;fillColor=#f5f5f5;strokeColor=#666666;startArrow=classic;startFill=1;exitX=0;exitY=0;exitDx=0;exitDy=0;" parent="1" source="ibESbj7DcfNNEL0wnVqV-3" target="ibESbj7DcfNNEL0wnVqV-1" edge="1">
                    <mxGeometry width="50" height="50" relative="1" as="geometry">
                        <mxPoint x="114" y="360" as="sourcePoint"/>
                        <mxPoint x="290" y="270" as="targetPoint"/>
                    </mxGeometry>
                </mxCell>
                <mxCell id="ibESbj7DcfNNEL0wnVqV-3" value="&lt;span&gt;Mauzis&lt;br&gt;&lt;/span&gt;" style="rounded=1;whiteSpace=wrap;html=1;shadow=0;sketch=1;strokeColor=#666666;fontColor=#333333;fillColor=#9999FF;" parent="1" vertex="1">
                    <mxGeometry x="150" y="327" width="70" height="63" as="geometry"/>
                </mxCell>
                <mxCell id="ibESbj7DcfNNEL0wnVqV-6" value="Telegram&lt;br&gt;chat" style="rounded=1;whiteSpace=wrap;html=1;shadow=0;sketch=1;strokeColor=#666666;fontColor=#333333;fillColor=#9999FF;" parent="1" vertex="1">
                    <mxGeometry x="270" y="320" width="60" height="120" as="geometry"/>
                </mxCell>
                <mxCell id="ibESbj7DcfNNEL0wnVqV-8" value="" style="endArrow=none;html=1;strokeColor=#666666;fillColor=#f5f5f5;sketch=1;entryX=1.024;entryY=0.076;entryDx=0;entryDy=0;entryPerimeter=0;" parent="1" target="ibESbj7DcfNNEL0wnVqV-6" edge="1">
                    <mxGeometry width="50" height="50" relative="1" as="geometry">
                        <mxPoint x="270" y="330" as="sourcePoint"/>
                        <mxPoint x="315" y="330" as="targetPoint"/>
                    </mxGeometry>
                </mxCell>
                <mxCell id="ibESbj7DcfNNEL0wnVqV-9" value="" style="ellipse;whiteSpace=wrap;html=1;aspect=fixed;shadow=0;sketch=1;fillColor=#f5f5f5;strokeColor=#666666;fontColor=#333333;" parent="1" vertex="1">
                    <mxGeometry x="319" y="322" width="5" height="5" as="geometry"/>
                </mxCell>
                <mxCell id="ibESbj7DcfNNEL0wnVqV-17" value="" style="endArrow=classic;html=1;entryX=0.25;entryY=0;entryDx=0;entryDy=0;sketch=1;fillColor=#f5f5f5;strokeColor=#666666;startArrow=classic;startFill=1;exitX=0.944;exitY=0.044;exitDx=0;exitDy=0;exitPerimeter=0;" parent="1" source="ibESbj7DcfNNEL0wnVqV-3" target="ibESbj7DcfNNEL0wnVqV-6" edge="1">
                    <mxGeometry width="50" height="50" relative="1" as="geometry">
                        <mxPoint x="212.5" y="337" as="sourcePoint"/>
                        <mxPoint x="286" y="286" as="targetPoint"/>
                        <Array as="points">
                            <mxPoint x="270" y="270"/>
                        </Array>
                    </mxGeometry>
                </mxCell>
                <mxCell id="ibESbj7DcfNNEL0wnVqV-4" value="Telegram Bot" style="ellipse;shape=cloud;whiteSpace=wrap;html=1;strokeColor=#666666;fontColor=#333333;shadow=0;sketch=1;fillColor=#9999FF;" parent="1" vertex="1">
                    <mxGeometry x="210" y="210" width="120" height="80" as="geometry"/>
                </mxCell>
            </root>
        </mxGraphModel>
    </diagram>
</mxfile>